# xmcd
#
# Track frame offsets:
#	150
#	12943
#	23791
#	39616
#	73603
#	84936
#	96436
#	105963
#	117436
#	147261
#	160271
#	171003
#	182158
#	193541
#	206903
#
# Disc length: 2925 seconds
#
# Revision: 0
# Processed by: cddbd v1.5.1PL0 Copyright (c) Steve Scherf et al.
# Submitted via: dBpowerAMP V4.0
#
DISCID=c80b6b0f
DTITLE=Charley Pride - The Best Of Charley Pride
DYEAR=1999
DGENRE=Country
TTITLE0=Crystal Chandeliers
TTITLE1=Mississippi Cotton-Picking Delta Town
TTITLE2=Let Me Live In The Light Of His Love
TTITLE3=Medley- There Goes My Everything,Lovesick Blues,Me and Bobby McGee
TTITLE4=The Happiness Of Having You
TTITLE5=My Eyes Can Only See As Far As You
TTITLE6=Kiss An Angel Good Mornin'
TTITLE7=Shutters And Boards
TTITLE8=Medley-Does My Ring Hurt Your Finger,Too Good To Be True,I'd Rather Love You,All I Have Toe Offer You Is Me,Wonder Could I Live There Anymore,Is Anybody Goin' To San Antone,I'm Just Me
TTITLE9=Kaw-Liga
TTITLE10=Oklahomo Morning
TTITLE11=Louisiana Man
TTITLE12=Ir's Gonna Take A Little Bit Longer
TTITLE13=I'm So Afraid Of Losing You Again
TTITLE14=Help Me Make It Through The Night
EXTD=Pegasus  Peg CD 206
EXTT0=
EXTT1=
EXTT2=
EXTT3=
EXTT4=
EXTT5=
EXTT6=
EXTT7=
EXTT8=
EXTT9=
EXTT10=
EXTT11=
EXTT12=
EXTT13=
EXTT14=
PLAYORDER=
